<?xml version="1.0" encoding="utf-8"?>
<!-- Svg Vector Icons : http://www.onlinewebfonts.com/icon -->
<!DOCTYPE svg PUBLIC "-//W3C//DTD SVG 1.1//EN" "http://www.w3.org/Graphics/SVG/1.1/DTD/svg11.dtd">
<svg version="1.1" xmlns="http://www.w3.org/2000/svg" xmlns:xlink="http://www.w3.org/1999/xlink" x="0px" y="0px" viewBox="0 0 1000 1000" enable-background="new 0 0 1000 1000" xml:space="preserve">
<metadata> Svg Vector Icons : http://www.onlinewebfonts.com/icon </metadata>
<g><g transform="translate(0.000000,511.000000) scale(0.100000,-0.100000)"><path d="M3829.2,2000.4c-176.8-30.7-307.6-71.8-440.8-130.7l-143.5-64.1l148.6-179.4c287.1-340.9,492.1-848.3,528-1312.3l12.8-182l-100,256.3c-192.2,494.7-428,902.2-681.8,1184.1c-117.9,130.7-120.5,130.7-305,148.6c-238.4,23.1-638.2-25.6-902.2-107.7C1502,1475,1009.9,1159.8,702.3,816.3C507.5,601,279.4,242.2,184.6,6.4c-74.3-187.1-82-235.8-84.6-476.7c0-248.6,5.1-279.4,69.2-389.6c292.2-494.7,1143.1-756.1,2827-866.3c643.3-43.6,4118.8-79.4,4715.9-48.7c1045.7,51.3,1537.8,182,1878.7,497.2c215.3,199.9,294.7,381.9,307.6,712.5c43.6,986.8-789.4,1901.8-2006.8,2209.3c-269.1,69.2-817.6,125.6-961.1,102.5l-97.4-15.4l87.1-189.7c215.3-463.9,312.7-1166.2,243.5-1730l-17.9-141L7099.6-73c-74.3,412.7-207.6,907.3-322.9,1194.4c-107.6,274.2-281.9,617.7-351.1,694.6c-51.3,56.4-451.1,148.7-725.3,166.6c-192.2,12.8-643.3-38.4-681.8-76.9c-7.7-7.7,20.5-61.5,64.1-123c189.7-284.5,348.6-684.3,425.5-1081.6c41-205,84.6-991.9,56.4-966.3c-10.3,7.7-56.4,174.3-107.7,371.7c-164,627.9-384.5,1148.2-679.2,1594.2c-151.2,225.5-161.5,235.8-281.9,261.4C4352,1992.8,3924,2018.4,3829.2,2000.4z"/></g></g>
</svg>